<svg width="30" height="20" viewBox="0 0 30 20" fill="none" xmlns="http://www.w3.org/2000/svg">
<path d="M30 0H0V20H30V0Z" fill="#ED0D0D"/>
<path fill-rule="evenodd" clip-rule="evenodd" d="M10.625 15C12.4041 15 13.9661 14.0709 14.8523 12.6713C14.12 13.487 13.0574 14 11.875 14C9.66587 14 7.875 12.2091 7.875 10C7.875 7.79086 9.66587 6 11.875 6C13.0575 6 14.1201 6.51305 14.8524 7.32868C13.9661 5.92916 12.4041 5 10.625 5C7.86358 5 5.625 7.23858 5.625 10C5.625 12.7614 7.86358 15 10.625 15ZM16.3108 10.5613L14.5834 10L16.3108 9.43874V7.62238L17.3784 9.09185L19.1059 8.53055L18.0382 10L19.1059 11.4695L17.3784 10.9082L16.3108 12.3777V10.5613Z" fill="white"/>
</svg>
