<svg width="24" height="24" viewBox="0 0 24 24" fill="none" xmlns="http://www.w3.org/2000/svg">
<path fill-rule="evenodd" clip-rule="evenodd" d="M15 11C15 13.2091 13.2091 15 11 15C8.79086 15 7 13.2091 7 11C7 8.79086 8.79086 7 11 7C13.2091 7 15 8.79086 15 11ZM14.4765 15.8907C13.4957 16.5892 12.2958 17 11 17C7.68629 17 5 14.3137 5 11C5 7.68629 7.68629 5 11 5C14.3137 5 17 7.68629 17 11C17 12.2958 16.5892 13.4957 15.8907 14.4765L19.2071 17.7929L17.7929 19.2071L14.4765 15.8907Z" fill="#3E4959"/>
</svg>
