<svg width="24" height="24" viewBox="0 0 24 24" fill="none" xmlns="http://www.w3.org/2000/svg">
<path fill-rule="evenodd" clip-rule="evenodd" d="M12 3.51471L14.4853 6H18V9.51471L20.4853 12L18 14.4853V18H14.4853L12 20.4853L9.51472 18H5.99999V14.4853L3.51471 12L5.99999 9.51471V6H9.5147L12 3.51471ZM13 12C13 13.8646 11.866 15.4643 10.25 16.147C10.7879 16.3743 11.3793 16.5 12 16.5C14.4853 16.5 16.5 14.4853 16.5 12C16.5 9.51472 14.4853 7.5 12 7.5C11.3793 7.5 10.7879 7.62567 10.25 7.85295C11.866 8.53571 13 10.1354 13 12Z" fill="#3E4959"/>
</svg>
