<?xml version="1.0" encoding="UTF-8" standalone="no"?><!DOCTYPE svg PUBLIC "-//W3C//DTD SVG 1.1//EN" "http://www.w3.org/Graphics/SVG/1.1/DTD/svg11.dtd"><svg width="100%" height="100%" viewBox="0 0 1214 1214" version="1.1" xmlns="http://www.w3.org/2000/svg" xmlns:xlink="http://www.w3.org/1999/xlink" xml:space="preserve" xmlns:serif="http://www.serif.com/" style="fill-rule:evenodd;clip-rule:evenodd;stroke-linejoin:round;stroke-miterlimit:2;"><path d="M606.913,0c335.208,0 606.916,271.746 606.916,606.917c0,335.208 -271.708,606.912 -606.917,606.912c-335.208,-0 -606.912,-271.708 -606.912,-606.912c-0,-335.171 271.708,-606.917 606.912,-606.917l0.001,-0Z" style="fill-rule:nonzero;"/><path d="M663.506,560.523l221.112,-257.025l-52.396,-0l-191.992,223.171l-153.343,-223.171l-176.863,-0l231.885,337.474l-231.885,269.53l52.399,0l202.748,-235.676l161.942,235.676l176.863,0l-240.483,-349.979l0.013,-0Zm-71.768,83.422l-23.495,-33.605l-186.939,-267.397l80.482,0l150.862,215.798l23.495,33.605l196.103,280.504l-80.482,0l-160.026,-228.892l-0,-0.013Z" style="fill:#fff;fill-rule:nonzero;"/></svg>