<?xml version="1.0" encoding="UTF-8" standalone="no"?><!DOCTYPE svg PUBLIC "-//W3C//DTD SVG 1.1//EN" "http://www.w3.org/Graphics/SVG/1.1/DTD/svg11.dtd"><svg width="100%" height="100%" viewBox="0 0 590 103" version="1.1" xmlns="http://www.w3.org/2000/svg" xmlns:xlink="http://www.w3.org/1999/xlink" xml:space="preserve" xmlns:serif="http://www.serif.com/" style="fill-rule:evenodd;clip-rule:evenodd;stroke-linejoin:round;stroke-miterlimit:2;"><g><path d="M40.638,36.45l-0,10.946l26.166,-0c-0.8,6.142 -2.85,10.637 -5.962,13.8c-3.829,3.825 -9.792,8.008 -20.209,8.008c-16.108,0 -28.704,-12.996 -28.704,-29.104c0,-16.112 12.596,-29.108 28.709,-29.108c8.675,-0 15.041,3.429 19.712,7.833l7.7,-7.7c-6.5,-6.317 -15.221,-11.125 -27.417,-11.125c-22.07,0 -40.633,17.979 -40.633,40.054c0,22.075 18.562,40.054 40.633,40.054c11.93,0 20.917,-3.916 27.95,-11.216c7.209,-7.209 9.48,-17.4 9.48,-25.588c-0,-2.541 -0.18,-4.896 -0.58,-6.854l-36.846,0Z" style="fill:#4285f4;fill-rule:nonzero;"/><path d="M110.775,27.55c-14.287,-0 -25.946,10.858 -25.946,25.854c0,14.867 11.659,25.859 25.946,25.859c14.283,-0 25.946,-10.95 25.946,-25.859c-0,-15 -11.663,-25.854 -25.946,-25.854Zm0,41.521c-7.833,-0 -14.6,-6.454 -14.6,-15.667c0,-9.3 6.767,-15.666 14.6,-15.666c7.833,-0 14.596,6.366 14.596,15.666c-0,9.213 -6.763,15.667 -14.596,15.667Z" style="fill:#ea4335;fill-rule:nonzero;"/><path d="M237.971,33.333l-0.404,0c-2.538,-3.025 -7.434,-5.783 -13.617,-5.783c-12.908,0 -24.167,11.258 -24.167,25.854c0,14.509 11.259,25.859 24.167,25.859c6.183,-0 11.083,-2.759 13.617,-5.875l0.4,-0l-0,3.604c-0,9.883 -5.292,15.179 -13.792,15.179c-6.946,-0 -11.262,-4.988 -13.042,-9.213l-9.883,4.092c2.85,6.854 10.375,15.267 22.921,15.267c13.308,-0 24.567,-7.834 24.567,-26.925l-0,-46.509l-10.767,0l-0,4.45Zm-13.042,35.738c-7.833,-0 -13.796,-6.675 -13.796,-15.667c0,-9.125 5.959,-15.666 13.792,-15.666c7.75,-0 13.8,6.679 13.8,15.758c0.042,9.033 -6.054,15.575 -13.796,15.575Z" style="fill:#4285f4;fill-rule:nonzero;"/><path d="M168.629,27.55c-14.283,-0 -25.946,10.858 -25.946,25.854c0,14.867 11.663,25.859 25.946,25.859c14.288,-0 25.946,-10.95 25.946,-25.859c0,-15 -11.658,-25.854 -25.946,-25.854Zm0,41.521c-7.833,-0 -14.596,-6.454 -14.596,-15.667c0,-9.3 6.763,-15.666 14.596,-15.666c7.833,-0 14.6,6.366 14.6,15.666c0,9.213 -6.766,15.667 -14.6,15.667Z" style="fill:#fbbc05;fill-rule:nonzero;"/><path d="M257.638,1.067l11.17,-0l0,78.196l-11.166,-0l-0.005,-78.196Z" style="fill:#34a853;fill-rule:nonzero;"/><path d="M303.304,69.071c-5.792,-0 -9.883,-2.625 -12.554,-7.833l34.583,-14.284l-1.158,-2.937c-2.138,-5.788 -8.725,-16.467 -22.121,-16.467c-13.308,0 -24.387,10.458 -24.387,25.854c-0,14.509 10.945,25.859 25.633,25.859c11.837,-0 18.692,-7.255 21.542,-11.438l-8.813,-5.875c-2.937,4.271 -6.942,7.125 -12.729,7.125l0.004,-0.004Zm-0.804,-31.821c4.583,0 8.5,2.358 9.792,5.696l-23.367,9.658c-0,-10.858 7.7,-15.354 13.575,-15.354Z" style="fill:#ea4335;fill-rule:nonzero;"/><path d="M357.592,79.863l-0,-70.876l11.083,0.001l34.45,55.137l0.396,0l-0.396,-13.658l-0,-41.475l9.104,-0l0,70.875l-9.5,-0l-36.033,-57.813l-0.396,0l0.396,13.663l-0,44.146l-9.104,-0Zm89.283,1.583c-7.325,-0 -13.279,-2.442 -17.867,-7.325c-4.583,-4.883 -6.879,-11.05 -6.879,-18.508c0,-7.063 2.225,-13.134 6.683,-18.213c4.455,-5.083 10.146,-7.625 17.076,-7.625c7.191,0 12.95,2.346 17.27,7.029c4.321,4.688 6.484,10.959 6.484,18.809l-0.1,1.683l-38.304,-0c0.262,4.883 1.895,8.742 4.9,11.583c3,2.834 6.512,4.25 10.541,4.25c6.534,0 10.954,-2.766 13.263,-8.312l8.116,3.366c-1.583,3.763 -4.191,6.913 -7.82,9.455c-3.625,2.541 -8.084,3.808 -13.363,3.808Zm13.067,-31.675c-0.2,-2.771 -1.467,-5.408 -3.813,-7.917c-2.341,-2.508 -5.821,-3.762 -10.441,-3.762c-3.367,-0 -6.288,1.054 -8.759,3.166c-2.475,2.113 -4.175,4.95 -5.1,8.513l28.113,-0Zm71.071,30.092l-9.305,-0l-12.075,-37.217l-11.979,37.217l-9.208,-0l-15.638,-48.5l9.504,-0l10.792,36.625l0.096,-0l11.979,-36.625l9.404,-0l11.975,36.625l0.1,-0l10.692,-36.625l9.304,-0l-15.642,48.5Zm39.596,1.583c-5.412,-0 -9.883,-1.317 -13.416,-3.958c-3.443,-2.531 -6.129,-5.955 -7.767,-9.9l8.117,-3.363c2.575,6.071 6.958,9.104 13.166,9.104c2.834,0 5.163,-0.625 6.98,-1.879c1.812,-1.25 2.72,-2.904 2.72,-4.95c0,-3.167 -2.208,-5.312 -6.633,-6.433l-9.8,-2.375c-3.1,-0.792 -6.038,-2.292 -8.808,-4.504c-2.771,-2.209 -4.159,-5.196 -4.159,-8.959c0,-4.291 1.896,-7.771 5.692,-10.441c3.792,-2.675 8.3,-4.013 13.513,-4.013c4.291,0 8.116,0.975 11.483,2.921c3.3,1.872 5.853,4.829 7.225,8.367l-7.917,3.266c-1.783,-4.291 -5.479,-6.437 -11.087,-6.437c-2.709,-0 -4.984,0.562 -6.834,1.683c-1.845,1.125 -2.77,2.642 -2.77,4.554c-0,2.771 2.145,4.654 6.433,5.642l9.604,2.279c4.554,1.054 7.917,2.871 10.096,5.442c2.179,2.575 3.267,5.479 3.267,8.708c-0,4.358 -1.784,7.988 -5.346,10.892c-3.563,2.904 -8.15,4.354 -13.759,4.354Z" style="fill:#5f6368;fill-rule:nonzero;"/></g></svg>